<svg xmlns="http://www.w3.org/2000/svg" xmlns:xlink="http://www.w3.org/1999/xlink" preserveAspectRatio="xMidYMid" width="205" height="54" viewBox="0 0 205 54">
  <defs>
    <style>
      .cls-1 {
        fill: #cabe9f;
      }

      .cls-1, .cls-2 {
        fill-rule: evenodd;
      }

      .cls-2 {
        fill: #3f4448;
      }
    </style>
  </defs>
  <g>
    <path d="M203.947,34.231 C203.576,35.203 203.034,36.062 202.321,36.809 C201.608,37.556 200.729,38.152 199.685,38.596 C198.639,39.040 197.443,39.263 196.096,39.263 C194.953,39.263 193.874,39.073 192.858,38.692 C191.843,38.311 190.954,37.766 190.192,37.058 C189.431,36.350 188.830,35.491 188.391,34.480 C187.951,33.470 187.731,32.334 187.731,31.074 C187.731,29.922 187.949,28.853 188.383,27.866 C188.818,26.880 189.411,26.023 190.163,25.296 C190.915,24.568 191.804,23.999 192.829,23.589 C193.854,23.179 194.953,22.974 196.125,22.974 C197.277,22.974 198.364,23.167 199.384,23.552 C200.405,23.938 201.293,24.487 202.050,25.200 C202.807,25.913 203.405,26.778 203.845,27.793 C204.284,28.809 204.504,29.946 204.504,31.206 C204.504,32.251 204.318,33.260 203.947,34.231 ZM201.201,28.745 C200.961,27.788 200.600,26.961 200.117,26.262 C199.633,25.564 199.030,25.017 198.308,24.622 C197.585,24.226 196.740,24.028 195.773,24.028 C195.031,24.028 194.347,24.170 193.723,24.453 C193.098,24.737 192.558,25.147 192.104,25.684 C191.650,26.221 191.296,26.880 191.042,27.661 C190.788,28.442 190.661,29.331 190.661,30.327 C190.661,31.440 190.786,32.478 191.035,33.440 C191.284,34.402 191.650,35.237 192.133,35.945 C192.617,36.653 193.220,37.210 193.942,37.615 C194.665,38.020 195.505,38.223 196.462,38.223 C197.204,38.223 197.888,38.076 198.513,37.783 C199.137,37.491 199.677,37.071 200.131,36.523 C200.585,35.977 200.937,35.310 201.186,34.524 C201.435,33.738 201.560,32.852 201.560,31.865 C201.560,30.743 201.440,29.703 201.201,28.745 ZM182.465,39.226 C181.581,39.378 180.690,39.453 179.792,39.453 C177.985,39.453 176.332,39.192 174.833,38.669 C173.334,38.147 172.045,37.408 170.966,36.451 C169.887,35.493 169.047,34.344 168.447,33.001 C167.846,31.658 167.546,30.166 167.546,28.526 C167.546,27.598 167.665,26.685 167.905,25.786 C168.144,24.888 168.493,24.034 168.952,23.223 C169.411,22.412 169.977,21.668 170.651,20.988 C171.325,20.310 172.094,19.722 172.958,19.223 C173.823,18.726 174.775,18.337 175.815,18.059 C176.855,17.781 177.980,17.641 179.191,17.641 C181.076,17.641 182.824,17.930 184.436,18.506 L185.432,21.216 L185.300,21.274 C184.538,20.572 183.623,20.010 182.553,19.590 C181.484,19.170 180.309,18.960 179.030,18.960 C177.800,18.960 176.672,19.153 175.646,19.539 C174.621,19.925 173.740,20.483 173.002,21.216 C172.265,21.948 171.691,22.847 171.281,23.911 C170.871,24.976 170.666,26.187 170.666,27.544 C170.666,29.038 170.861,30.432 171.252,31.726 C171.642,33.021 172.224,34.140 172.995,35.088 C173.766,36.035 174.731,36.780 175.888,37.322 C177.045,37.864 178.395,38.135 179.938,38.135 C180.495,38.135 181.052,38.076 181.608,37.959 C182.165,37.841 182.700,37.668 183.212,37.439 C183.725,37.210 184.208,36.931 184.663,36.604 C185.117,36.277 185.529,35.903 185.900,35.483 L186.061,35.586 L184.890,38.574 C184.157,38.857 183.349,39.075 182.465,39.226 Z" class="cls-1"/>
    <path d="M164.257,24.101 C164.213,24.424 164.177,24.822 164.147,25.296 C164.118,25.769 164.098,26.331 164.089,26.980 C164.079,27.630 164.074,28.393 164.074,29.273 L164.074,39.204 L163.503,39.204 L151.857,27.749 L151.857,32.964 C151.857,33.843 151.862,34.609 151.872,35.264 C151.882,35.918 151.899,36.482 151.923,36.956 C151.948,37.429 151.982,37.827 152.026,38.149 C152.070,38.472 152.126,38.735 152.194,38.940 L152.194,38.999 L149.997,38.999 L149.997,38.940 C150.065,38.735 150.124,38.472 150.173,38.149 C150.222,37.827 150.261,37.429 150.290,36.956 C150.319,36.482 150.339,35.918 150.349,35.264 C150.358,34.609 150.363,33.843 150.363,32.964 L150.363,29.273 C150.363,28.393 150.358,27.630 150.349,26.980 C150.339,26.331 150.319,25.769 150.290,25.296 C150.261,24.822 150.222,24.424 150.173,24.101 C150.124,23.779 150.065,23.516 149.997,23.310 L149.997,23.252 L150.905,23.252 L162.565,34.766 L162.565,29.273 C162.565,28.393 162.560,27.630 162.551,26.980 C162.541,26.331 162.524,25.769 162.499,25.296 C162.475,24.822 162.443,24.424 162.404,24.101 C162.365,23.779 162.311,23.516 162.243,23.310 L162.243,23.252 L164.426,23.252 L164.426,23.310 C164.357,23.516 164.301,23.779 164.257,24.101 ZM144.826,36.809 C144.113,37.556 143.234,38.152 142.189,38.596 C141.144,39.040 139.948,39.263 138.601,39.263 C137.458,39.263 136.379,39.073 135.363,38.692 C134.347,38.311 133.459,37.766 132.697,37.058 C131.936,36.350 131.335,35.491 130.895,34.480 C130.456,33.470 130.236,32.334 130.236,31.074 C130.236,29.922 130.453,28.853 130.888,27.866 C131.323,26.880 131.916,26.023 132.668,25.296 C133.420,24.568 134.309,23.999 135.334,23.589 C136.359,23.179 137.458,22.974 138.630,22.974 C139.782,22.974 140.869,23.167 141.889,23.552 C142.909,23.938 143.798,24.487 144.555,25.200 C145.312,25.913 145.910,26.778 146.350,27.793 C146.789,28.809 147.009,29.946 147.009,31.206 C147.009,32.251 146.823,33.260 146.452,34.231 C146.081,35.203 145.539,36.062 144.826,36.809 ZM143.706,28.745 C143.466,27.788 143.105,26.961 142.622,26.262 C142.138,25.564 141.535,25.017 140.812,24.622 C140.090,24.226 139.245,24.028 138.278,24.028 C137.536,24.028 136.852,24.170 136.227,24.453 C135.602,24.737 135.063,25.147 134.609,25.684 C134.155,26.221 133.801,26.880 133.547,27.661 C133.293,28.442 133.166,29.331 133.166,30.327 C133.166,31.440 133.290,32.478 133.540,33.440 C133.789,34.402 134.155,35.237 134.638,35.945 C135.122,36.653 135.724,37.210 136.447,37.615 C137.170,38.020 138.010,38.223 138.967,38.223 C139.709,38.223 140.392,38.076 141.018,37.783 C141.642,37.491 142.182,37.071 142.636,36.523 C143.090,35.977 143.442,35.310 143.691,34.524 C143.940,33.738 144.064,32.852 144.064,31.865 C144.064,30.743 143.945,29.703 143.706,28.745 ZM126.926,38.047 C126.545,38.448 126.056,38.777 125.461,39.036 C124.865,39.294 124.143,39.424 123.293,39.424 C122.824,39.424 122.377,39.385 121.953,39.306 C121.528,39.228 121.137,39.133 120.781,39.021 C120.424,38.909 120.107,38.787 119.829,38.655 C119.550,38.523 119.318,38.399 119.133,38.282 L119.396,35.513 L119.704,35.513 C119.802,35.855 119.946,36.196 120.136,36.539 C120.327,36.880 120.561,37.190 120.839,37.468 C121.118,37.747 121.445,37.971 121.821,38.142 C122.197,38.313 122.629,38.399 123.117,38.399 C123.459,38.399 123.781,38.343 124.084,38.230 C124.387,38.118 124.648,37.959 124.868,37.754 C125.087,37.549 125.261,37.297 125.388,37.000 C125.514,36.702 125.578,36.368 125.578,35.996 C125.578,35.557 125.490,35.149 125.314,34.773 C125.139,34.397 124.904,34.036 124.611,33.689 C124.318,33.342 123.989,33.008 123.623,32.686 C123.256,32.364 122.878,32.036 122.487,31.704 C122.097,31.373 121.718,31.033 121.352,30.686 C120.986,30.339 120.656,29.966 120.363,29.566 C120.070,29.165 119.836,28.738 119.660,28.284 C119.484,27.830 119.396,27.330 119.396,26.782 C119.396,26.206 119.518,25.688 119.763,25.229 C120.007,24.770 120.329,24.382 120.729,24.065 C121.130,23.748 121.589,23.504 122.106,23.332 C122.624,23.162 123.161,23.076 123.718,23.076 C124.128,23.076 124.511,23.106 124.868,23.164 C125.224,23.223 125.546,23.294 125.834,23.377 C126.122,23.460 126.374,23.543 126.589,23.626 C126.804,23.709 126.979,23.774 127.116,23.823 L127.043,26.314 L126.750,26.314 C126.691,26.148 126.596,25.938 126.464,25.684 C126.332,25.430 126.157,25.181 125.937,24.937 C125.717,24.692 125.446,24.485 125.124,24.314 C124.802,24.143 124.416,24.058 123.967,24.058 C123.625,24.058 123.320,24.114 123.051,24.226 C122.783,24.339 122.555,24.492 122.370,24.688 C122.184,24.883 122.043,25.115 121.945,25.383 C121.848,25.652 121.799,25.943 121.799,26.255 C121.799,26.763 121.953,27.246 122.260,27.705 C122.568,28.164 122.951,28.621 123.410,29.075 C123.869,29.528 124.367,29.985 124.904,30.444 C125.441,30.904 125.939,31.382 126.398,31.880 C126.857,32.378 127.241,32.905 127.548,33.462 C127.856,34.018 128.010,34.614 128.010,35.249 C128.010,35.718 127.924,36.201 127.753,36.700 C127.582,37.197 127.307,37.647 126.926,38.047 ZM112.438,38.940 C112.507,38.735 112.568,38.472 112.622,38.149 C112.675,37.827 112.719,37.429 112.753,36.956 C112.787,36.482 112.814,35.918 112.834,35.264 C112.853,34.609 112.863,33.843 112.863,32.964 L112.863,29.273 C112.863,28.393 112.853,27.630 112.834,26.980 C112.814,26.331 112.787,25.769 112.753,25.296 C112.719,24.822 112.675,24.424 112.622,24.101 C112.568,23.779 112.507,23.516 112.438,23.310 L112.438,23.252 L115.837,23.252 L115.837,23.310 C115.768,23.516 115.707,23.779 115.654,24.101 C115.600,24.424 115.556,24.822 115.522,25.296 C115.488,25.769 115.461,26.331 115.441,26.980 C115.422,27.630 115.412,28.393 115.412,29.273 L115.412,32.964 C115.412,33.843 115.422,34.609 115.441,35.264 C115.461,35.918 115.488,36.482 115.522,36.956 C115.556,37.429 115.600,37.827 115.654,38.149 C115.707,38.472 115.768,38.735 115.837,38.940 L115.837,38.999 L112.438,38.999 L112.438,38.940 ZM106.828,38.787 C106.828,38.723 106.828,38.653 106.828,38.574 C106.828,38.360 106.782,38.101 106.689,37.798 C106.596,37.495 106.484,37.186 106.352,36.867 C106.220,36.551 106.083,36.245 105.942,35.952 C105.800,35.660 105.686,35.415 105.598,35.219 L105.026,34.048 C104.763,34.048 104.433,34.048 104.038,34.048 C103.642,34.048 103.210,34.048 102.741,34.048 C102.272,34.048 101.789,34.048 101.291,34.048 C100.793,34.048 100.319,34.051 99.870,34.055 C99.421,34.060 99.011,34.065 98.640,34.070 C98.268,34.075 97.980,34.078 97.775,34.078 L97.233,35.219 C96.999,35.689 96.799,36.096 96.633,36.443 C96.467,36.790 96.330,37.095 96.223,37.358 C96.115,37.622 96.037,37.849 95.988,38.040 C95.939,38.230 95.915,38.409 95.915,38.574 C95.915,38.682 95.920,38.762 95.930,38.816 C95.939,38.870 95.954,38.911 95.974,38.940 L95.974,38.999 L93.395,38.999 L93.395,38.940 C93.464,38.873 93.571,38.723 93.718,38.494 C93.864,38.265 94.033,37.983 94.223,37.652 C94.414,37.320 94.619,36.944 94.838,36.523 C95.058,36.104 95.275,35.669 95.490,35.219 L101.467,22.885 L102.565,22.885 L108.425,35.219 C108.649,35.689 108.876,36.138 109.106,36.567 C109.335,36.997 109.548,37.380 109.743,37.717 C109.938,38.054 110.109,38.332 110.256,38.552 C110.402,38.772 110.500,38.902 110.549,38.940 L110.549,38.999 L106.799,38.999 C106.818,38.921 106.828,38.850 106.828,38.787 ZM101.467,26.401 L98.347,32.905 L99.240,32.905 C99.650,32.905 100.087,32.903 100.551,32.898 C101.015,32.893 101.481,32.891 101.950,32.891 C102.419,32.891 102.873,32.888 103.312,32.883 C103.752,32.879 104.147,32.876 104.499,32.876 L101.467,26.401 ZM88.649,38.940 C88.698,38.834 88.745,38.657 88.789,38.413 C88.832,38.169 88.854,37.876 88.854,37.534 C88.854,37.408 88.849,37.278 88.840,37.146 C88.830,37.014 88.815,36.870 88.796,36.714 L86.936,22.681 L78.293,38.940 L77.282,38.824 L68.581,22.534 C68.239,24.849 67.941,26.987 67.687,28.951 C67.580,29.790 67.473,30.628 67.365,31.462 C67.258,32.297 67.162,33.077 67.080,33.799 C66.996,34.522 66.931,35.159 66.882,35.710 C66.833,36.262 66.809,36.670 66.809,36.933 C66.809,37.266 66.818,37.559 66.838,37.812 C66.857,38.066 66.877,38.282 66.896,38.457 C66.926,38.662 66.955,38.843 66.984,38.999 L64.055,38.999 L64.055,38.940 C64.162,38.784 64.284,38.552 64.421,38.245 C64.557,37.937 64.665,37.549 64.743,37.080 C64.850,36.397 64.970,35.627 65.102,34.773 C65.234,33.918 65.370,33.022 65.512,32.085 C65.654,31.148 65.795,30.188 65.937,29.207 C66.078,28.225 66.215,27.258 66.347,26.306 C66.479,25.354 66.606,24.436 66.728,23.552 C66.850,22.669 66.960,21.861 67.058,21.128 C67.155,20.396 67.236,19.758 67.299,19.217 C67.363,18.674 67.409,18.267 67.438,17.993 L69.299,17.993 L78.513,35.219 L87.653,17.993 L89.045,17.993 L91.447,35.396 C91.515,35.943 91.589,36.411 91.667,36.802 C91.745,37.192 91.823,37.527 91.901,37.805 C91.979,38.084 92.055,38.313 92.128,38.494 C92.202,38.674 92.272,38.824 92.341,38.940 L92.341,38.999 L88.649,38.999 L88.649,38.940 Z" class="cls-2"/>
    <path d="M53.990,27.831 C53.990,27.831 53.982,27.990 53.967,28.297 C53.945,28.613 53.946,29.032 53.872,29.693 C53.837,30.012 53.814,30.379 53.757,30.761 C53.699,31.142 53.635,31.558 53.566,32.007 C53.473,32.452 53.388,32.934 53.268,33.440 C53.135,33.943 53.013,34.483 52.825,35.036 C52.138,37.261 51.008,39.893 49.129,42.504 C47.271,45.114 44.695,47.718 41.397,49.772 C39.757,50.810 37.929,51.677 35.981,52.393 C35.494,52.571 34.992,52.720 34.490,52.880 C33.978,53.008 33.472,53.171 32.946,53.272 C32.685,53.330 32.423,53.389 32.160,53.446 C31.898,53.505 31.630,53.543 31.363,53.593 C30.831,53.698 30.288,53.758 29.742,53.825 C29.197,53.894 28.643,53.917 28.088,53.959 C27.964,53.961 27.838,53.961 27.714,53.964 L27.617,53.999 L27.399,53.968 C27.069,53.977 26.741,53.992 26.403,53.981 C26.125,53.976 25.846,53.971 25.566,53.966 C25.285,53.958 24.997,53.931 24.711,53.914 C24.134,53.887 23.568,53.804 22.993,53.738 C21.851,53.567 20.699,53.351 19.566,53.019 C18.993,52.874 18.435,52.669 17.867,52.485 C17.313,52.267 16.744,52.075 16.199,51.818 C13.986,50.867 11.863,49.591 9.932,48.017 C8.006,46.436 6.268,44.567 4.801,42.468 C1.875,38.267 0.138,33.083 0.009,27.793 C-0.140,22.507 1.325,17.143 4.138,12.675 C6.922,8.181 11.052,4.650 15.643,2.511 C20.252,0.380 25.289,-0.358 29.922,0.157 C32.242,0.411 34.473,0.942 36.528,1.731 C38.588,2.508 40.470,3.528 42.159,4.669 C45.533,6.981 48.045,9.850 49.794,12.644 C51.563,15.440 52.564,18.178 53.144,20.461 C53.730,22.752 53.897,24.608 53.954,25.864 C54.000,26.493 53.980,26.976 53.988,27.301 C53.990,27.626 53.990,27.793 53.990,27.793 L53.990,27.831 ZM51.000,27.755 L50.999,27.793 C50.999,27.793 50.992,27.644 50.978,27.354 C50.958,27.066 50.961,26.635 50.895,26.078 C50.798,24.966 50.582,23.330 49.982,21.339 C49.386,19.355 48.414,17.001 46.788,14.627 C45.170,12.261 42.911,9.871 39.982,7.939 C38.521,6.971 36.889,6.142 35.133,5.464 C33.373,4.790 31.468,4.336 29.482,4.081 C28.982,4.013 28.521,3.992 28.021,3.945 C27.747,3.936 27.471,3.928 27.195,3.918 L26.780,3.905 L26.440,3.909 C25.925,3.911 25.407,3.917 24.887,3.961 C24.365,3.980 23.846,4.055 23.321,4.111 C22.278,4.260 21.225,4.448 20.189,4.746 C19.664,4.874 19.154,5.060 18.634,5.223 C18.127,5.420 17.605,5.590 17.106,5.823 C15.078,6.679 13.128,7.836 11.349,9.268 C9.575,10.706 7.971,12.411 6.612,14.329 C3.894,18.167 2.291,22.921 2.163,27.793 C2.145,29.010 2.184,30.230 2.327,31.442 C2.482,32.651 2.696,33.856 3.020,35.034 C3.656,37.392 4.662,39.642 5.949,41.701 C8.387,45.623 11.953,48.726 15.919,50.701 L28.768,41.194 L28.768,43.745 L17.647,51.475 C18.347,51.755 19.053,52.014 19.768,52.228 L28.768,45.895 L28.768,48.446 L22.519,52.873 C23.417,53.035 24.315,53.148 25.210,53.210 L28.768,50.596 L28.768,53.146 L28.768,53.186 C29.066,53.162 29.367,53.145 29.662,53.109 C29.865,53.086 30.062,53.048 30.263,53.020 L30.263,7.408 L32.321,10.062 L32.321,52.639 C32.813,52.523 33.297,52.392 33.773,52.246 L33.773,11.935 L35.831,14.588 L35.831,51.517 C36.328,51.313 36.811,51.092 37.284,50.860 L37.284,16.461 L39.342,19.116 L39.345,49.719 C39.827,49.421 40.298,49.114 40.744,48.792 C43.749,46.603 45.944,43.948 47.453,41.398 C48.210,40.120 48.807,38.865 49.259,37.672 C49.715,36.480 50.075,35.366 50.301,34.336 C50.546,33.311 50.694,32.383 50.809,31.576 C50.850,31.171 50.889,30.795 50.924,30.452 C50.957,30.109 50.959,29.810 50.976,29.537 C51.015,29.013 50.994,28.518 51.000,28.221 C51.000,27.914 51.000,27.755 51.000,27.755 ZM14.922,46.747 L28.768,36.494 L28.768,39.044 L14.922,49.298 L14.922,46.747 ZM14.922,42.047 L28.768,31.794 L28.768,34.344 L14.922,44.597 L14.922,42.047 ZM14.922,37.347 L28.768,27.093 L28.768,29.643 L14.922,39.896 L14.922,37.347 ZM14.922,32.645 L28.768,22.392 L28.768,24.942 L14.922,35.196 L14.922,32.645 ZM14.922,28.056 L28.768,17.802 L28.768,20.353 L14.922,30.606 L14.922,28.056 ZM14.922,23.466 L28.768,13.213 L28.768,15.763 L14.922,26.016 L14.922,23.466 Z" class="cls-1"/>
  </g>
</svg>
